<?xml version="1.0" encoding="iso-8859-1"?>
<!-- Generator: Adobe Illustrator 19.0.0, SVG Export Plug-In . SVG Version: 6.00 Build 0)  -->
<svg version="1.1" id="Capa_1" xmlns="http://www.w3.org/2000/svg" xmlns:xlink="http://www.w3.org/1999/xlink" x="0px" y="0px"
	 viewBox="0 0 512 512" style="fill: #f49741; enable-background:new 0 0 512 512;" xml:space="preserve">
<g>
	<g>
		<path d="M349.862,136.533h-8.533V153.6h8.533c9.412,0,17.067,7.654,17.067,17.067c0,9.412-7.654,17.067-17.067,17.067h-8.533
			V204.8h8.533c18.825,0,34.133-15.309,34.133-34.133S368.687,136.533,349.862,136.533z"/>
	</g>
</g>
<g>
	<g>
		<path d="M162.129,162.133h8.533v-17.067h-8.533c-18.825,0-34.133,15.309-34.133,34.133s15.309,34.133,34.133,34.133h8.533v-17.067
			h-8.533c-9.412,0-17.067-7.654-17.067-17.067S152.717,162.133,162.129,162.133z"/>
	</g>
</g>
<g>
	<g>
		<path d="M248.589,196.608l7.33-58.675l-16.93-2.116l-8.533,68.267c-0.299,2.432,0.452,4.872,2.074,6.707
			c1.621,1.835,3.951,2.884,6.4,2.884h25.6v-17.067H248.589z"/>
	</g>
</g>
<g>
	<g>
		<path d="M341.321,128v100.676c0.102,10.462-3.635,20.565-10.487,28.407l-36.872,41.745c-4.855,5.53-11.861,8.704-19.191,8.713
			H237.41c-7.356-0.009-14.353-3.183-19.191-8.695l-36.855-42.138c-6.878-7.885-10.615-17.988-10.522-28.527V110.933h-17.067v117.18
			c-0.128,14.643,5.103,28.783,14.737,39.825l36.872,42.163c8.081,9.199,19.738,14.49,32.009,14.507h37.393
			c12.245-0.017,23.91-5.308,31.966-14.49l36.89-41.762c9.643-11.042,14.882-25.182,14.746-39.748V128H341.321z"/>
	</g>
</g>
<g>
	<g>
		<circle cx="204.796" cy="153.941" r="17.067"/>
	</g>
</g>
<g>
	<g>
		<circle cx="298.662" cy="153.941" r="17.067"/>
	</g>
</g>
<g>
	<g>
		<path d="M332.275,36.258C329.331,18.458,312.606,0,255.996,0C148.177,0,119.991,107.776,119.718,108.86
			c-0.572,2.313-0.162,4.762,1.143,6.75s3.388,3.345,5.734,3.738c73.967,12.348,139.776-14.413,171.281-30.66
			c8.499,18.833,24.704,49.946,49.954,56.132c0.674,0.171,1.357,0.247,2.031,0.247c1.749,0,3.473-0.538,4.924-1.57
			c2.022-1.425,3.328-3.661,3.567-6.118l5.035-50.594C365.598,64.751,352.508,44.058,332.275,36.258z M346.406,85.086l-3.849,38.707
			c-15.744-11.153-27.273-37.76-32.085-48.879l-0.657-1.519c-0.964-2.21-2.807-3.917-5.103-4.685
			c-0.879-0.29-1.809-0.444-2.722-0.444c-1.442,0-2.876,0.367-4.164,1.092c-24.269,13.568-86.835,43.102-158.66,34.551
			c8.713-24.064,38.912-86.844,116.83-86.844c27.247,0,59.733,4.446,59.733,25.6c0,3.934,2.688,7.364,6.519,8.294
			C337.609,54.69,347.994,69.359,346.406,85.086z"/>
	</g>
</g>
<g>
	<g>
		<path d="M286.315,222.763c-9.984,5-21.171,7.637-32.341,7.637c-0.008,0-0.017,0-0.026,0h-23.552v17.067h23.552
			c0.009,0,0.017,0,0.026,0c13.807,0,27.631-3.26,39.979-9.438L286.315,222.763z"/>
	</g>
</g>
<g>
	<g>
		<path d="M196.262,298.667v44.706c0.034,4.301-3.157,7.97-7.441,8.533l-53.931,7.168C96.9,364.16,68.262,396.885,68.262,435.2V512
			h17.067v-76.8c0-29.807,22.272-55.262,51.814-59.213l53.914-7.168c12.809-1.681,22.383-12.689,22.272-25.523v-44.629H196.262z"/>
	</g>
</g>
<g>
	<g>
		<path d="M377.101,359.245l-53.939-7.168c-4.275-0.563-7.467-4.224-7.424-8.61v-44.8h-17.067v44.723
			c-0.111,12.928,9.463,23.936,22.255,25.6l53.914,7.168c29.474,3.942,51.746,29.338,51.823,59.042V512h17.067h0.009v-76.817
			C443.644,396.954,414.997,364.314,377.101,359.245z"/>
	</g>
</g>
<g>
	<g>
		<rect x="136.529" y="443.733" width="17.067" height="68.267"/>
	</g>
</g>
<g>
	<g>
		<rect x="358.396" y="443.733" width="17.067" height="68.267"/>
	</g>
</g>
<g>
	<g>
		<path d="M315.362,355.072c-3.644,4.591-7.817,8.755-12.399,12.39c-32.725,25.882-80.427,20.335-106.325-12.382l-13.38,10.581
			c18.278,23.108,45.431,35.157,72.832,35.157c20.156,0,40.457-6.528,57.464-19.977c5.615-4.446,10.726-9.549,15.172-15.172
			L315.362,355.072z"/>
	</g>
</g>
<g>
</g>
<g>
</g>
<g>
</g>
<g>
</g>
<g>
</g>
<g>
</g>
<g>
</g>
<g>
</g>
<g>
</g>
<g>
</g>
<g>
</g>
<g>
</g>
<g>
</g>
<g>
</g>
<g>
</g>
</svg>
