<?xml version="1.0" encoding="iso-8859-1"?>
<!-- Generator: Adobe Illustrator 19.0.0, SVG Export Plug-In . SVG Version: 6.00 Build 0)  -->
<svg version="1.1" id="Capa_1" xmlns="http://www.w3.org/2000/svg" xmlns:xlink="http://www.w3.org/1999/xlink" x="0px" y="0px"
	 viewBox="0 0 512.002 512.002" style="fill: #419ef4; enable-background:new 0 0 512 512;" xml:space="preserve">
<g>
	<g>
		<path d="M349.726,144.849h-8.52v17.041h8.52c9.398,0,17.041,7.643,17.041,17.041c0,9.398-7.643,17.041-17.041,17.041h-8.52v17.041
			h8.52c18.796,0,34.082-15.286,34.082-34.082S368.522,144.849,349.726,144.849z"/>
	</g>
</g>
<g>
	<g>
		<path d="M162.276,161.89h8.52v-17.041h-8.52c-18.796,0-34.082,15.286-34.082,34.082s15.286,34.082,34.082,34.082h8.52v-17.041
			h-8.52c-9.398,0-17.041-7.643-17.041-17.041C145.236,169.533,152.878,161.89,162.276,161.89z"/>
	</g>
</g>
<g>
	<g>
		<path d="M250.25,213.012l13.948-48.779l-16.385-4.686l-17.041,59.643c-0.741,2.573-0.222,5.334,1.389,7.472
			c1.61,2.139,4.124,3.391,6.799,3.391h25.553v-17.041H250.25z"/>
	</g>
</g>
<g>
	<g>
		<path d="M356.806,148.641l-34.082-51.122c-1.585-2.369-4.243-3.792-7.089-3.792H162.268c-4.703,0-8.52,3.817-8.52,8.52v99.697
			c0.009,25.408,6.535,50.586,18.881,72.798c16.811,30.256,48.745,49.035,83.338,49.035c0.017,0,0.034,0,0.051,0
			c34.601,0,66.536-18.787,83.338-49.035c12.338-22.221,18.873-47.399,18.881-72.807v-48.566
			C358.237,151.682,357.735,150.038,356.806,148.641z M341.197,201.927c-0.008,22.528-5.794,44.843-16.734,64.542
			c-13.803,24.837-40.029,40.267-68.453,40.267c0,0-0.008,0-0.017,0c0,0-0.008,0-0.017,0c-28.416,0-54.641-15.422-68.444-40.267
			c-10.94-19.691-16.726-42.006-16.734-64.534v-91.168h140.28l30.12,45.175V201.927z"/>
	</g>
</g>
<g>
	<g>
		<path d="M284.059,232.541c-9.389,9.381-21.863,14.544-35.13,14.553h-9.969v17.041h9.969c17.816-0.009,34.567-6.944,47.178-19.537
			L284.059,232.541z"/>
	</g>
</g>
<g>
	<g>
		<circle cx="204.913" cy="170.41" r="17.041"/>
	</g>
</g>
<g>
	<g>
		<circle cx="307.158" cy="170.41" r="17.041"/>
	</g>
</g>
<g>
	<g>
		<path d="M360.538,69.818c-6.91-9.696-17.177-16.121-28.927-18.089c-0.528-0.085-1.039-0.162-1.568-0.23
			c-7.583-15.703-23.525-25.919-41.324-25.936h-96.323l-14.519-21.77c-1.414-2.122-3.706-3.502-6.245-3.749
			c-2.539-0.264-5.061,0.656-6.867,2.454l-8.52,8.52c-26.814,26.805-26.814,70.43,0,97.252l12.039-12.065
			c-9.764-9.764-15.141-22.75-15.141-36.57c0-13.812,5.385-26.805,15.149-36.57l1.176-1.167l11.281,16.913
			c1.585,2.369,4.243,3.792,7.089,3.792h100.865c12.431,0.017,23.431,7.95,27.385,19.742c1.15,3.476,4.414,5.819,8.077,5.819
			c0.009,0,0.009,0,0.017,0c1.423-0.068,3.093,0.128,4.601,0.383c7.251,1.218,13.59,5.189,17.859,11.17s5.947,13.275,4.729,20.534
			l-10.054,60.239l16.811,2.803l10.063-60.239C370.166,91.315,367.448,79.514,360.538,69.818z"/>
	</g>
</g>
<g>
	<g>
		<path d="M196.358,298.216v35.138l-61.279,8.137c-37.933,5.078-66.527,37.754-66.527,76.011v93.724h17.041v-93.733
			c0-29.762,22.247-55.17,51.736-59.115l68.674-9.117c4.235-0.562,7.396-4.175,7.396-8.444v-42.602H196.358z"/>
	</g>
</g>
<g>
	<g>
		<path d="M376.914,341.5l-61.27-8.137v-35.138h-17.041v42.602c0,4.269,3.161,7.881,7.396,8.444l68.666,9.117
			c29.506,3.936,51.744,29.353,51.744,59.115v93.724h17.041v-93.716C443.45,379.254,414.847,346.57,376.914,341.5z"/>
	</g>
</g>
<g>
	<g>
		<rect x="136.749" y="443.063" width="17.041" height="68.163"/>
	</g>
</g>
<g>
	<g>
		<rect x="358.28" y="443.063" width="17.041" height="68.163"/>
	</g>
</g>
<g>
	<g>
		<path d="M251.272,367.82l-41.06,27.376l-14.11-56.431l-16.53,4.124l17.041,68.163c0.673,2.684,2.607,4.882,5.189,5.879
			c0.997,0.383,2.036,0.571,3.076,0.571c1.653,0,3.306-0.477,4.72-1.423l51.122-34.082L251.272,367.82z"/>
	</g>
</g>
<g>
	<g>
		<path d="M311.418,333.423l-55.417,31.67l-55.417-31.67l-8.452,14.791l59.643,34.082c1.312,0.75,2.769,1.125,4.226,1.125
			c1.457,0,2.914-0.375,4.226-1.125l59.643-34.082L311.418,333.423z"/>
	</g>
</g>
<g>
	<g>
		<path d="M315.891,338.756l-14.11,56.431l-41.06-27.376l-9.449,14.178l51.122,34.082c1.423,0.946,3.076,1.431,4.729,1.431
			c1.039,0,2.079-0.187,3.059-0.579c2.582-0.997,4.524-3.195,5.189-5.879l17.041-68.163L315.891,338.756z"/>
	</g>
</g>
<g>
	<g>
		<path d="M247.038,414.801l-8.52-25.561l-16.163,5.393l7.958,23.874l-8.359,91.944l16.973,1.551l8.512-93.733
			C247.549,417.102,247.404,415.917,247.038,414.801z"/>
	</g>
</g>
<g>
	<g>
		<path d="M281.664,418.516l7.958-23.874l-16.155-5.393l-8.52,25.561c-0.366,1.116-0.503,2.292-0.4,3.468l8.52,93.725l16.956-1.542
			L281.664,418.516z"/>
	</g>
</g>
<g>
	<g>
		<rect x="238.994" y="408.982" width="34.082" height="17.041"/>
	</g>
</g>
<g>
</g>
<g>
</g>
<g>
</g>
<g>
</g>
<g>
</g>
<g>
</g>
<g>
</g>
<g>
</g>
<g>
</g>
<g>
</g>
<g>
</g>
<g>
</g>
<g>
</g>
<g>
</g>
<g>
</g>
</svg>
