<?xml version="1.0" encoding="iso-8859-1"?>
<!-- Generator: Adobe Illustrator 19.0.0, SVG Export Plug-In . SVG Version: 6.00 Build 0)  -->
<svg version="1.1" id="Capa_1" xmlns="http://www.w3.org/2000/svg" xmlns:xlink="http://www.w3.org/1999/xlink" x="0px" y="0px"
	 viewBox="0 0 511.996 511.996" style="fill: #77f441; enable-background:new 0 0 512 512;" xml:space="preserve">
<g>
	<g>
		<path d="M349.81,136.721h-8.529v17.058h8.529c9.407,0,17.058,7.65,17.058,17.058s-7.65,17.058-17.058,17.058h-8.529v17.058h8.529
			c18.815,0,34.115-15.301,34.115-34.115S368.625,136.721,349.81,136.721z"/>
	</g>
</g>
<g>
	<g>
		<path d="M162.177,162.307h8.529v-17.058h-8.529c-18.814,0-34.115,15.301-34.115,34.115c0,18.814,15.301,34.115,34.115,34.115
			h8.529v-17.058h-8.529c-9.407,0-17.058-7.65-17.058-17.058C145.119,169.957,152.77,162.307,162.177,162.307z"/>
	</g>
</g>
<g>
	<g>
		<path d="M248.591,196.763l7.326-58.644l-16.921-2.115l-8.529,68.23c-0.298,2.431,0.452,4.87,2.073,6.704s3.949,2.883,6.397,2.883
			h25.578v-17.058H248.591z"/>
	</g>
</g>
<g>
	<g>
		<rect x="230.441" y="230.87" width="51.173" height="17.058"/>
	</g>
</g>
<g>
	<g>
		<path d="M357.443,132.908l-34.115-68.23c-1.04-2.081-2.891-3.642-5.117-4.333c-2.2-0.691-4.623-0.426-6.661,0.699l-153.339,85.288
			c-2.704,1.51-4.384,4.358-4.384,7.454v74.465c-0.128,14.644,5.1,28.776,14.729,39.804l36.853,42.149
			c8.077,9.194,19.727,14.482,31.991,14.499h37.373c12.239-0.017,23.898-5.305,31.957-14.482l36.87-41.748
			c9.629-11.019,14.866-25.143,14.738-39.753v-92C358.339,135.399,358.032,134.094,357.443,132.908z M341.273,228.738
			c0,0.026,0,0.051,0,0.077c0.102,10.448-3.633,20.546-10.482,28.392l-36.853,41.723c-4.853,5.527-11.855,8.691-19.181,8.708
			h-37.348c-7.352-0.017-14.345-3.181-19.181-8.691l-36.836-42.132c-6.874-7.872-10.61-17.962-10.516-28.495v-69.527l141.168-78.516
			l29.228,58.456V228.738z"/>
	</g>
</g>
<g>
	<g>
		<circle cx="204.855" cy="154.111" r="17.058"/>
	</g>
</g>
<g>
	<g>
		<circle cx="298.672" cy="154.111" r="17.058"/>
	</g>
</g>
<g>
	<g>
		<path d="M328.761,35.1C300.812,3.552,255.908-8.183,215.968,5.872l-12.537,4.435c-44.674,15.787-73.134,59.778-69.22,106.738
			l2.388,45.714l17.041-0.887l-2.405-45.979c-3.284-39.488,20.512-76.298,57.885-89.501l12.529-4.435
			c34.192-12.051,72.802-1.45,96.026,26.414c1.313,1.569,3.139,2.61,5.151,2.951c24.307,4.068,41.612,26.482,39.386,51.156
			l-3.838,50.661l17.006,1.288l3.829-50.542C382.126,71.569,360.164,41.974,328.761,35.1z"/>
	</g>
</g>
<g>
	<g>
		<rect x="230.441" y="282.043" width="17.058" height="34.115"/>
	</g>
</g>
<g>
	<g>
		<rect x="264.556" y="282.043" width="17.058" height="25.586"/>
	</g>
</g>
<g>
	<g>
		
			<rect x="199.511" y="273.529" transform="matrix(0.4472 -0.8944 0.8944 0.4472 -136.7226 342.8938)" width="19.07" height="17.057"/>
	</g>
</g>
<g>
	<g>
		
			<rect x="294.369" y="272.855" transform="matrix(0.9487 -0.3162 0.3162 0.9487 -74.9996 110.4662)" width="17.049" height="26.968"/>
	</g>
</g>
<g>
	<g>
		<path d="M196.292,298.776v27.616c0.034,4.307-3.156,7.974-7.437,8.529l-53.902,7.164c-37.97,5.083-66.593,37.791-66.593,76.094
			v93.817h17.058V418.17c0-29.791,22.269-55.232,51.787-59.181l53.876-7.164c12.81-1.663,22.38-12.665,22.269-25.51v-27.539H196.292
			z"/>
	</g>
</g>
<g>
	<g>
		<path d="M377.034,342.264l-53.902-7.164c-4.273-0.571-7.471-4.23-7.429-8.606v-27.719h-17.058v27.642
			c-0.111,12.904,9.45,23.906,22.243,25.586l53.885,7.164c29.458,3.94,51.719,29.322,51.795,59.011v93.817h17.058h0.009v-93.834
			C443.542,379.953,414.91,347.33,377.034,342.264z"/>
	</g>
</g>
<g>
	<g>
		<path d="M324.906,338.06l-5.458,12.708c-10.891,25.407-35.795,41.825-63.446,41.825c0-0.008-0.017-0.008-0.034,0
			c-27.65,0-52.554-16.418-63.437-41.834l-5.458-12.699l-15.676,6.729l5.458,12.691c13.569,31.701,44.631,52.171,79.113,52.171
			c0.009-0.009,0.026-0.009,0.043,0c34.49,0,65.535-20.478,79.113-52.162l5.458-12.699L324.906,338.06z"/>
	</g>
</g>
<g>
	<g>
		<rect x="136.625" y="443.748" width="17.058" height="68.23"/>
	</g>
</g>
<g>
	<g>
		<rect x="76.923" y="460.806" width="68.23" height="17.058"/>
	</g>
</g>
<g>
	<g>
		<rect x="358.373" y="443.748" width="17.058" height="68.23"/>
	</g>
</g>
<g>
	<g>
		<rect x="366.902" y="460.806" width="68.23" height="17.058"/>
	</g>
</g>
<g>
</g>
<g>
</g>
<g>
</g>
<g>
</g>
<g>
</g>
<g>
</g>
<g>
</g>
<g>
</g>
<g>
</g>
<g>
</g>
<g>
</g>
<g>
</g>
<g>
</g>
<g>
</g>
<g>
</g>
</svg>
