<?xml version="1.0" encoding="iso-8859-1"?>
<!-- Generator: Adobe Illustrator 19.0.0, SVG Export Plug-In . SVG Version: 6.00 Build 0)  -->
<svg version="1.1" id="Capa_1" xmlns="http://www.w3.org/2000/svg" xmlns:xlink="http://www.w3.org/1999/xlink" x="0px" y="0px"
	 viewBox="0 0 512 512" style="fill: #f44c41; enable-background:new 0 0 512 512;" xml:space="preserve">
<g>
	<g>
		<path d="M248.602,204.8l7.322-58.675l-16.93-2.116l-8.533,68.267c-0.299,2.432,0.452,4.873,2.074,6.707s3.951,2.884,6.4,2.884
			h25.6V204.8H248.602z"/>
	</g>
</g>
<g>
	<g>
		<path d="M275.567,224.358c-9.404,9.395-21.897,14.566-35.183,14.575h-1.451V256h1.451c17.843-0.009,34.628-6.955,47.249-19.567
			L275.567,224.358z"/>
	</g>
</g>
<g>
	<g>
		<path d="M358.4,136.533h-8.533V153.6h8.533c9.412,0,17.067,7.654,17.067,17.067c0,9.412-7.654,17.067-17.067,17.067h-8.533V204.8
			h8.533c18.825,0,34.133-15.309,34.133-34.133S377.225,136.533,358.4,136.533z"/>
	</g>
</g>
<g>
	<g>
		<path d="M153.6,153.6h8.533v-17.067H153.6c-18.825,0-34.133,15.309-34.133,34.133S134.775,204.8,153.6,204.8h8.533v-17.067H153.6
			c-9.412,0-17.067-7.654-17.067-17.067C136.533,161.254,144.188,153.6,153.6,153.6z"/>
	</g>
</g>
<g>
	<g>
		<path d="M341.333,85.333l0.017,93.201l-1.801,23.262c-2.372,38.878-30.729,71.194-68.83,78.566
			c-2.475,0.435-4.966,0.768-7.484,0.981c-45.841,3.976-86.613-30.259-90.547-76.177l-2.022-25.967v-68.267H153.6l0.026,68.924
			l2.057,26.701c2.295,26.82,14.908,51.14,35.499,68.48c18.33,15.437,41.045,23.697,64.734,23.697c2.918,0,5.837-0.128,8.772-0.384
			c3.021-0.256,6.033-0.657,9.148-1.212c45.884-8.875,79.915-47.65,82.748-94.157L358.4,179.2V85.333H341.333z"/>
	</g>
</g>
<g>
	<g>
		<path d="M312.235,17.314C304.981,6.519,292.915,0,279.654,0c-0.034,0-0.068,0-0.102,0H128c-4.71,0-8.533,3.823-8.533,8.533
			c0,9.6,3.191,18.466,8.55,25.6H128c-4.71,0-8.533,3.823-8.533,8.533c0,9.6,3.191,18.466,8.55,25.6H128
			c-4.71,0-8.533,3.823-8.533,8.533c0,23.526,19.14,42.667,42.667,42.667h34.133c37.342,0,75.648-11.938,108.792-24.226
			c11.998,11.307,26.598,19.533,42.539,23.919c0.751,0.205,1.51,0.307,2.27,0.307c1.852,0,3.669-0.597,5.171-1.749
			c2.116-1.613,3.362-4.122,3.362-6.784V68.267C358.4,41.737,338.108,19.849,312.235,17.314z M341.325,98.927
			c-10.496-4.497-20.011-11.11-27.938-19.465c-2.355-2.492-5.999-3.337-9.199-2.116c-21.564,8.132-66.432,25.054-107.921,25.054
			h-34.133c-11.128,0-20.617-7.134-24.141-17.067h24.141c4.71,0,8.533-3.823,8.533-8.533s-3.823-8.533-8.533-8.533
			c-11.128,0-20.617-7.134-24.141-17.067h24.141c4.71,0,8.533-3.823,8.533-8.533c0-4.71-3.823-8.533-8.533-8.533
			c-11.128,0-20.617-7.134-24.141-17.067h141.585c8.269,0.102,16.179,4.71,19.977,12.339c1.442,2.901,4.403,4.727,7.637,4.727
			c18.825,0,34.133,15.309,34.133,34.133V98.927z"/>
	</g>
</g>
<g>
	<g>
		<path d="M238.933,136.533h-76.8c-4.71,0-8.533,3.823-8.533,8.533v21.521c0.034,12.518,4.924,24.269,13.798,33.101
			c8.841,8.798,20.574,13.645,33.05,13.645c0.034,0,0.068,0,0.102,0h0.171c12.518-0.034,24.269-4.924,33.101-13.798
			c8.823-8.866,13.67-20.642,13.645-33.135v-21.333C247.467,140.356,243.644,136.533,238.933,136.533z M230.4,166.417
			c0.034,16.427-13.295,29.815-29.696,29.85h-0.171c-0.034,0-0.06,0-0.085,0c-16.393,0-29.747-13.321-29.781-29.867v-12.8H230.4
			V166.417z"/>
	</g>
</g>
<g>
	<g>
		<path d="M349.867,136.533h-76.8c-4.71,0-8.533,3.823-8.533,8.533v21.521c0.06,25.796,21.069,46.746,46.848,46.746
			c0.034,0,0.068,0,0.094,0h0.179c12.518-0.034,24.269-4.924,33.101-13.798c8.832-8.866,13.679-20.642,13.645-33.135v-21.333
			C358.4,140.356,354.586,136.533,349.867,136.533z M341.342,166.426c0.017,7.953-3.063,15.437-8.678,21.077
			c-5.606,5.632-13.082,8.747-21.018,8.764h-0.179c-0.009,0-0.009,0-0.017,0c-16.367-0.333-29.807-13.295-29.85-29.867v-12.8h59.742
			V166.426z"/>
	</g>
</g>
<g>
	<g>
		<rect x="238.933" y="136.533" width="34.133" height="17.067"/>
	</g>
</g>
<g>
	<g>
		<circle cx="204.8" cy="162.133" r="17.067"/>
	</g>
</g>
<g>
	<g>
		<circle cx="307.2" cy="162.133" r="17.067"/>
	</g>
</g>
<g>
	<g>
		<path d="M204.8,281.6v44.518c0.034,4.352-3.2,8.013-7.484,8.533l-62.421,7.356c-37.99,5.086-66.628,37.811-66.628,76.126V512
			h17.067v-93.867c0-29.807,22.272-55.262,51.686-59.196l62.319-7.339c12.937-1.562,22.622-12.57,22.528-25.54V281.6H204.8z"/>
	</g>
</g>
<g>
	<g>
		<path d="M376.977,342.076l-62.268-7.339c-4.318-0.521-7.543-4.181-7.509-8.593V281.6h-17.067v44.476
			c-0.094,13.03,9.583,24.038,22.554,25.609l62.157,7.322c29.508,3.942,51.789,29.372,51.823,59.128V512h17.067v-93.875
			C443.682,379.844,415.044,347.162,376.977,342.076z"/>
	</g>
</g>
<g>
	<g>
		<path d="M324.966,337.971l-5.461,12.715c-10.906,25.421-35.814,41.847-63.471,41.847c-0.026,0-0.051,0-0.077,0
			c-27.657,0-52.557-16.427-63.454-41.847l-5.461-12.715l-15.684,6.733l5.461,12.706c13.585,31.71,44.638,52.19,79.13,52.19
			c0.026,0,0.06,0,0.094,0c34.483,0,65.553-20.48,79.147-52.181l5.461-12.715L324.966,337.971z"/>
	</g>
</g>
<g>
	<g>
		<rect x="136.533" y="443.733" width="17.067" height="68.267"/>
	</g>
</g>
<g>
	<g>
		<rect x="76.8" y="460.8" width="68.267" height="17.067"/>
	</g>
</g>
<g>
	<g>
		<rect x="358.4" y="443.733" width="17.067" height="68.267"/>
	</g>
</g>
<g>
	<g>
		<rect x="366.933" y="460.8" width="68.267" height="17.067"/>
	</g>
</g>
<g>
</g>
<g>
</g>
<g>
</g>
<g>
</g>
<g>
</g>
<g>
</g>
<g>
</g>
<g>
</g>
<g>
</g>
<g>
</g>
<g>
</g>
<g>
</g>
<g>
</g>
<g>
</g>
<g>
</g>
</svg>
